# xmcd CD database file
#
# Track frame offsets:
#	150
#	23051
#	44331
#	67586
#	99616
#	118249
#	138013
#	162046
#	180250
#	202635
#	228284
#	248816
#	275416
#	289216
#
# Disc length: 4189 seconds
#
# Revision: 0
# Processed by: cddbd v1.5.2PL0 Copyright (c) Steve Scherf et al.
# Submitted via: CDex 1.51
#
DISCID=af105b0e
DTITLE=Dianna Krall - No title
DYEAR=1900
DGENRE=Blues
TTITLE0=Cry Me a River
TTITLE1=The Look Of Love
TTITLE2=Autumm Leaves
TTITLE3=Big Foot
TTITLE4=Frim Fram Sauce
TTITLE5=If I Had You
TTITLE6=Let's face the Music And Dance
TTITLE7=Midnight Sun
TTITLE8=The Look Of Love
TTITLE9=They Can't Take That Away From Me
TTITLE10=When I look In Your Eyes
TTITLE11=Pell Me A grape
TTITLE12=Pick Your Self Up
TTITLE13=Body And Soul
EXTD=
EXTT0=
EXTT1=
EXTT2=
EXTT3=
EXTT4=
EXTT5=
EXTT6=
EXTT7=
EXTT8=
EXTT9=
EXTT10=
EXTT11=
EXTT12=
EXTT13=
PLAYORDER=
